<?xml version="1.0" standalone="no"?><!DOCTYPE svg PUBLIC "-//W3C//DTD SVG 1.1//EN" "http://www.w3.org/Graphics/SVG/1.1/DTD/svg11.dtd"><svg t="1560154660145" class="icon" style="" viewBox="0 0 1024 1024" version="1.1" xmlns="http://www.w3.org/2000/svg" p-id="9208" xmlns:xlink="http://www.w3.org/1999/xlink" width="200" height="200"><defs><style type="text/css"></style></defs><path d="M847.644444 1024H150.755556c-48.355556-5.688889-88.177778-42.666667-93.866667-93.866667V93.866667C62.577778 45.511111 102.4 5.688889 150.755556 0h466.488888l327.111112 327.111111v605.866667c-8.533333 48.355556-48.355556 85.333333-96.711112 91.022222z m0-696.888889h-184.888888c-25.6-2.844444-45.511111-22.755556-45.511112-45.511111V93.866667H196.266667c-25.6-2.844444-45.511111 17.066667-45.511111 42.666666v748.088889c5.688889 22.755556 22.755556 42.666667 45.511111 45.511111h605.866666c25.6-2.844444 45.511111-22.755556 45.511111-45.511111V327.111111z m-139.377777 512H241.777778c-25.6 0-45.511111-19.911111-45.511111-45.511111 0-25.6 19.911111-45.511111 45.511111-45.511111h466.488889c25.6 0 45.511111 19.911111 45.511111 45.511111 0 22.755556-19.911111 45.511111-45.511111 45.511111zM241.777778 557.511111h233.244444c25.6 0 45.511111 19.911111 45.511111 45.511111 0 25.6-19.911111 45.511111-45.511111 45.511111H241.777778c-25.6 0-45.511111-19.911111-45.511111-45.511111 0-22.755556 19.911111-45.511111 45.511111-45.511111z m466.488889-91.022222H241.777778c-25.6 0-45.511111-19.911111-45.511111-45.511111 0-25.6 19.911111-45.511111 45.511111-45.511111h466.488889c25.6 0 45.511111 19.911111 45.511111 45.511111 0 22.755556-19.911111 45.511111-45.511111 45.511111z" fill="#666666" p-id="9209"></path></svg>