<?xml version="1.0" standalone="no"?><!DOCTYPE svg PUBLIC "-//W3C//DTD SVG 1.1//EN" "http://www.w3.org/Graphics/SVG/1.1/DTD/svg11.dtd"><svg t="1560149947717" class="icon" style="" viewBox="0 0 1024 1024" version="1.1" xmlns="http://www.w3.org/2000/svg" p-id="2201" xmlns:xlink="http://www.w3.org/1999/xlink" width="200" height="200"><defs><style type="text/css"></style></defs><path d="M525.653333 512a223.085714 223.085714 0 1 0-213.333333 0C170.666667 522.971429 61.927619 609.52381 29.257143 731.428571a295.253333 295.253333 0 0 0-4.876191 133.607619A46.32381 46.32381 0 0 0 69.973333 902.095238h678.034286a46.32381 46.32381 0 0 0 45.104762-38.034286 295.253333 295.253333 0 0 0-4.388571-132.632381 304.518095 304.518095 0 0 0-263.070477-219.428571z" p-id="2202" fill="#707070"></path><path d="M715.093333 261.12m33.889524 0l224.792381 0q33.889524 0 33.889524 33.889524l0 5.363809q0 33.889524-33.889524 33.889524l-224.792381 0q-33.889524 0-33.889524-33.889524l0-5.363809q0-33.889524 33.889524-33.889524Z" p-id="2203" fill="#707070"></path><path d="M715.093333 439.832381m33.889524 0l224.792381 0q33.889524 0 33.889524 33.889524l0 5.363809q0 33.889524-33.889524 33.889524l-224.792381 0q-33.889524 0-33.889524-33.889524l0-5.363809q0-33.889524 33.889524-33.889524Z" p-id="2204" fill="#707070"></path><path d="M812.617143 618.544762m34.377143 0l126.293333 0q34.377143 0 34.377143 34.377143l0 4.388571q0 34.377143-34.377143 34.377143l-126.293333 0q-34.377143 0-34.377143-34.377143l0-4.388571q0-34.377143 34.377143-34.377143Z" p-id="2205" fill="#707070"></path></svg>