<?xml version="1.0" standalone="no"?><!DOCTYPE svg PUBLIC "-//W3C//DTD SVG 1.1//EN" "http://www.w3.org/Graphics/SVG/1.1/DTD/svg11.dtd"><svg t="1560150054630" class="icon" style="" viewBox="0 0 1024 1024" version="1.1" xmlns="http://www.w3.org/2000/svg" p-id="6099" xmlns:xlink="http://www.w3.org/1999/xlink" width="200" height="200"><defs><style type="text/css"></style></defs><path d="M834.695788 1.597504H408.162246c-27.157566 0-51.120125 22.365055-51.120124 51.120125V223.650546c0 28.75507-22.365055 51.120125-51.120125 51.120125H136.586583c-28.75507 0-51.120125 22.365055-51.120124 51.120125v595.868954c0 55.912637 46.327613 102.24025 102.240249 102.24025h646.98908c55.912637 0 102.24025-46.327613 102.240249-102.24025V103.837754c0-57.51014-46.327613-102.24025-102.240249-102.24025z m-110.227769 766.801872H297.934477c-14.377535 0-25.560062-11.182527-25.560062-25.560062 0-14.377535 11.182527-25.560062 25.560062-25.560063h426.533542c14.377535 0 25.560062 11.182527 25.560062 25.560063 0 12.780031-12.780031 25.560062-25.560062 25.560062z m0-170.932917H297.934477c-14.377535 0-25.560062-11.182527-25.560062-25.560063 0-14.377535 11.182527-25.560062 25.560062-25.560062h426.533542c14.377535 0 25.560062 11.182527 25.560062 25.560062 0 12.780031-12.780031 25.560062-25.560062 25.560063z m0-170.932918H451.294852c-14.377535 0-25.560062-11.182527-25.560063-25.560062 0-14.377535 11.182527-25.560062 25.560063-25.560062h273.173167c14.377535 0 25.560062 11.182527 25.560062 25.560062 0 14.377535-12.780031 25.560062-25.560062 25.560062zM122.209048 223.650546h130.99532c28.75507 0 51.120125-22.365055 51.120125-51.120125V33.547582c0-19.170047-9.585023-23.962559-23.962559-9.585023l-170.932917 175.725429c-11.182527 12.780031-6.390016 23.962559 12.780031 23.962558z" fill="" p-id="6100"></path></svg>