<?xml version="1.0" standalone="no"?><!DOCTYPE svg PUBLIC "-//W3C//DTD SVG 1.1//EN" "http://www.w3.org/Graphics/SVG/1.1/DTD/svg11.dtd"><svg t="1560150072887" class="icon" style="" viewBox="0 0 1024 1024" version="1.1" xmlns="http://www.w3.org/2000/svg" p-id="6218" xmlns:xlink="http://www.w3.org/1999/xlink" width="200" height="200"><defs><style type="text/css"></style></defs><path d="M407.091 594.079c83.753-34.617 143.35-121.047 143.35-222.219 0-131.537-100.582-238.53-224.261-238.53-123.684 0-224.261 106.987-224.261 238.53 0 101.172 59.591 187.608 143.309 222.219C105.784 632.479 2.319 767.073 2.319 927.237h44.683c0-163.778 125.21-296.97 279.178-296.97 153.963 0 279.219 133.238 279.219 296.97h44.641c0-160.118-103.465-294.758-242.949-333.158zM146.601 371.86c0-105.333 80.614-191.047 179.66-191.047 98.965 0 179.58 85.714 179.58 191.047s-80.574 191.043-179.62 191.043c-99.006-0.005-179.62-85.709-179.62-191.043z m816.338 561.926h-200.77v-43.239h200.816c9.979 0 18.094-8.622 18.094-19.236V189.266c0-10.619-8.074-19.241-18.094-19.241H491.187v-43.238h471.798c32.358 0 58.7 28.032 58.7 62.438v682.127c0 34.402-26.342 62.434-58.746 62.434z m-376.187-664.12H904.12v49.228H586.752v-49.229z m0 153.758H904.12v49.224H586.752v-49.27 0.046z m83.502 163.86H904.12v49.27H670.254v-49.27z" fill="" p-id="6219"></path></svg>